# Blender v2.78 (sub 0) OBJ File: 'Hagrid ALT NUM 2.blend'
# www.blender.org
mtllib RArm.mtl
o Cylinder.001_Cylinder.008
v -3.100763 4.544193 -1.783836
v -2.395300 5.115716 -1.612524
v -3.077398 4.462749 -1.793745
v -2.374987 5.034501 -1.634045
v -3.051568 4.385669 -1.819609
v -2.355368 4.959093 -1.671470
v -3.024265 4.315917 -1.860433
v -2.337198 4.892392 -1.723360
v -2.996539 4.256174 -1.914648
v -2.321174 4.836960 -1.787721
v -2.969455 4.208734 -1.980171
v -2.307913 4.794928 -1.862079
v -2.944053 4.175420 -2.054483
v -2.297923 4.767911 -1.943578
v -2.921311 4.157515 -2.134730
v -2.291590 4.756947 -2.029085
v -2.902102 4.155704 -2.217827
v -2.289156 4.762457 -2.115315
v -2.887165 4.170058 -2.300581
v -2.290715 4.784231 -2.198953
v -2.877073 4.200026 -2.379811
v -2.296207 4.821430 -2.276785
v -2.872214 4.244454 -2.452473
v -2.305421 4.872626 -2.345820
v -2.872774 4.301638 -2.515775
v -2.318002 4.935851 -2.403406
v -2.878734 4.369378 -2.567283
v -2.333468 5.008675 -2.447329
v -2.889862 4.445072 -2.605020
v -2.351224 5.088300 -2.475901
v -2.905733 4.525810 -2.627532
v -2.370588 5.171666 -2.488025
v -2.925735 4.608490 -2.633958
v -2.390815 5.255569 -2.483234
v -2.949100 4.689934 -2.624048
v -2.411129 5.336784 -2.461713
v -2.974930 4.767014 -2.598184
v -2.430748 5.412192 -2.424288
v -3.002233 4.836766 -2.557361
v -2.448918 5.478893 -2.372398
v -3.029959 4.896510 -2.503145
v -2.464942 5.534325 -2.308037
v -3.057044 4.943950 -2.437623
v -2.478203 5.576357 -2.233678
v -3.082444 4.977262 -2.363310
v -2.488192 5.603374 -2.152179
v -3.105187 4.995168 -2.283063
v -2.494526 5.614338 -2.066671
v -3.124395 4.996979 -2.199966
v -2.496959 5.608828 -1.980442
v -3.139333 4.982625 -2.117212
v -2.495401 5.587054 -1.896804
v -3.149425 4.952657 -2.037982
v -2.489909 5.549855 -1.818972
v -3.154284 4.908228 -1.965320
v -2.480695 5.498659 -1.749937
v -3.153723 4.851044 -1.902018
v -2.468113 5.435434 -1.692351
v -3.147764 4.783304 -1.850510
v -2.452647 5.362610 -1.648428
v -3.136635 4.707611 -1.812774
v -2.434891 5.282985 -1.619856
v -3.120765 4.626873 -1.790261
v -2.415527 5.199619 -1.607733
v -1.987787 5.310488 -1.476430
v -1.969312 5.224126 -1.510261
v -1.950169 5.146333 -1.560520
v -1.931093 5.080098 -1.625274
v -1.912819 5.027966 -1.702037
v -1.896046 4.991940 -1.787857
v -1.881422 4.973405 -1.879436
v -1.869506 4.973074 -1.973256
v -1.860759 4.990958 -2.065710
v -1.855515 5.026372 -2.153246
v -1.853975 5.077953 -2.232500
v -1.856200 5.143720 -2.300426
v -1.862104 5.221145 -2.354414
v -1.871460 5.307253 -2.392389
v -1.883908 5.398735 -2.412892
v -1.898970 5.492074 -2.415134
v -1.916067 5.583685 -2.399031
v -1.934541 5.670047 -2.365199
v -1.953685 5.747840 -2.314940
v -1.972760 5.814075 -2.250185
v -1.991036 5.866208 -2.173423
v -2.007808 5.902233 -2.087603
v -2.022432 5.920768 -1.996024
v -2.034348 5.921099 -1.902204
v -2.043096 5.903214 -1.809750
v -2.048340 5.867801 -1.722214
v -2.049879 5.816219 -1.642960
v -2.047654 5.750453 -1.575034
v -2.041750 5.673028 -1.521046
v -2.032394 5.586919 -1.483071
v -2.019947 5.495438 -1.462568
v -2.004884 5.402098 -1.460326
v -1.434462 5.973241 -1.225627
v -1.419500 5.915156 -1.259210
v -1.394452 5.864756 -1.312492
v -1.360282 5.823976 -1.383426
v -1.318301 5.794384 -1.469287
v -1.270124 5.777117 -1.566773
v -1.217601 5.772840 -1.672140
v -1.162752 5.781714 -1.781338
v -1.107683 5.803402 -1.890170
v -1.054512 5.837068 -1.994455
v -1.005281 5.881419 -2.090183
v -0.711473 5.934751 -2.070034
v -0.925984 5.995014 -2.241730
v -0.898966 6.059891 -2.291724
v -0.881865 6.126891 -2.321739
v -0.875340 6.193438 -2.330620
v -0.879642 6.256975 -2.318028
v -0.894603 6.315060 -2.284445
v -0.919650 6.365460 -2.231163
v -0.953821 6.406240 -2.160228
v -0.995802 6.435833 -2.074368
v -1.043979 6.453099 -1.976881
v -1.096502 6.457377 -1.871514
v -1.151351 6.448502 -1.762316
v -1.206420 6.426814 -1.653484
v -1.259591 6.393147 -1.549200
v -1.308822 6.348796 -1.453471
v -1.352221 6.295465 -1.369976
v -1.388119 6.235202 -1.301924
v -1.415137 6.170324 -1.251931
v -1.432237 6.103324 -1.221916
v -1.438762 6.036777 -1.213035
v -3.893648 4.326880 -1.768952
v -3.870501 4.245003 -1.775091
v -3.846135 4.166404 -1.797583
v -3.821486 4.094105 -1.835563
v -3.797502 4.030882 -1.887573
v -3.775104 3.979167 -1.951614
v -3.755154 3.940946 -2.025225
v -3.738416 3.917688 -2.105576
v -3.725536 3.910287 -2.189580
v -3.717008 3.919028 -2.274009
v -3.713160 3.943575 -2.355618
v -3.714138 3.982983 -2.431270
v -3.719907 4.035740 -2.498060
v -3.730244 4.099816 -2.553420
v -3.744752 4.172750 -2.595222
v -3.762873 4.251740 -2.621860
v -3.783912 4.333750 -2.632311
v -3.807058 4.415627 -2.626172
v -3.831425 4.494226 -2.603681
v -3.856073 4.566526 -2.565700
v -3.880057 4.629748 -2.513690
v -3.902455 4.681463 -2.449649
v -3.922405 4.719685 -2.376038
v -3.939143 4.742942 -2.295687
v -3.952023 4.750343 -2.211683
v -3.960551 4.741602 -2.127254
v -3.964400 4.717055 -2.045645
v -3.963420 4.677647 -1.969992
v -3.957652 4.624890 -1.903202
v -3.947315 4.560813 -1.847843
v -3.932807 4.487879 -1.806041
v -3.914686 4.408889 -1.779403
vn 0.0659 0.0519 -0.9965
vn 0.0269 0.3539 -0.9349
vn -0.0373 0.2239 -0.9739
vn -0.1100 0.5042 -0.8565
vn -0.1357 0.3832 -0.9136
vn -0.2401 0.6304 -0.7382
vn -0.2270 0.5251 -0.8202
vn -0.3554 0.7258 -0.5889
vn -0.3084 0.6457 -0.6985
vn -0.4508 0.7880 -0.4193
vn -0.3780 0.7419 -0.5537
vn -0.5237 0.8176 -0.2393
vn -0.4347 0.8114 -0.3907
vn -0.5704 0.8192 -0.0590
vn -0.4775 0.8520 -0.2144
vn -0.5998 0.7910 0.1202
vn -0.5016 0.8645 -0.0324
vn -0.5104 0.8452 0.1584
vn -0.6099 0.7352 0.2959
vn -0.5061 0.7921 0.3410
vn -0.5945 0.6600 0.4592
vn -0.4841 0.7087 0.5131
vn -0.5574 0.5632 0.6099
vn -0.4436 0.5974 0.6681
vn -0.4978 0.4455 0.7441
vn -0.3840 0.4619 0.7995
vn -0.4152 0.3083 0.8559
vn -0.3057 0.3075 0.9011
vn -0.3101 0.1542 0.9381
vn -0.2109 0.1405 0.9673
vn -0.1859 -0.0110 0.9825
vn -0.1042 -0.0313 0.9940
vn -0.0496 -0.1789 0.9826
vn 0.0088 -0.2003 0.9797
vn 0.0894 -0.3391 0.9365
vn 0.1191 -0.3578 0.9261
vn 0.2216 -0.4821 0.8476
vn 0.2202 -0.5002 0.8374
vn 0.3394 -0.6005 0.7240
vn 0.3086 -0.6229 0.7188
vn 0.4389 -0.6904 0.5750
vn 0.3821 -0.7230 0.5755
vn 0.5187 -0.7504 0.4098
vn 0.4398 -0.7979 0.4122
vn 0.5786 -0.7807 0.2359
vn 0.4810 -0.8451 0.2333
vn 0.6194 -0.7828 0.0596
vn 0.5052 -0.8619 0.0440
vn 0.6419 -0.7582 -0.1143
vn 0.5081 -0.8474 -0.1538
vn 0.6378 -0.6321 -0.4399
vn 0.4921 -0.8000 -0.3433
vn 0.6047 -0.5405 -0.5849
vn 0.4611 -0.7161 -0.5239
vn 0.5546 -0.4260 -0.7148
vn 0.4113 -0.6010 -0.6852
vn 0.4849 -0.2924 -0.8242
vn 0.3439 -0.4592 -0.8190
vn 0.3952 -0.1421 -0.9075
vn 0.2613 -0.2974 -0.9183
vn 0.5393 -0.8419 -0.0183
vn 0.5695 -0.7998 -0.1894
vn 0.2866 0.0207 -0.9578
vn 0.1673 -0.1238 -0.9781
vn 0.1619 0.1892 -0.9685
vn 0.6199 0.4557 -0.6387
vn 0.6619 0.3171 -0.6792
vn -0.2167 0.5800 -0.7852
vn -0.7606 0.3577 -0.5418
vn -0.3488 0.6747 -0.6504
vn -0.5679 0.6475 0.5082
vn -0.4989 0.5562 0.6646
vn 0.3272 -0.6833 0.6527
vn 0.3941 -0.7725 0.4979
vn 0.4946 -0.2143 -0.8422
vn -0.6142 0.7892 -0.0009
vn -0.0699 -0.0828 0.9941
vn 0.0467 -0.2600 0.9645
vn 0.6496 -0.7054 -0.2835
vn 0.5887 -0.7282 -0.3509
vn -0.4045 0.4233 0.8107
vn 0.4499 -0.8290 0.3322
vn 0.4015 -0.0464 -0.9147
vn -0.6233 0.7630 0.1712
vn 0.1531 -0.4235 0.8928
vn 0.5960 -0.6286 -0.4997
vn -0.4513 0.7407 -0.4977
vn -0.3103 0.2704 0.9113
vn 0.4993 -0.8520 0.1575
vn 0.2719 0.1287 -0.9537
vn -0.6072 0.7175 0.3412
vn 0.2467 -0.5663 0.7864
vn 0.5867 -0.5083 -0.6304
vn -0.5260 0.7816 -0.3353
vn -0.1916 0.0980 0.9766
vn -0.0584 0.4543 -0.8889
vn 0.1121 0.3004 -0.9472
vn 0.5542 -0.3693 -0.7459
vn -0.5812 0.7968 -0.1649
vn -0.9389 0.2946 0.1777
vn -0.5799 0.1161 -0.8063
vn -0.5094 -0.8603 -0.0188
vn -0.1819 -0.2889 -0.9399
vn -0.7635 -0.3588 0.5369
vn -0.6879 -0.5932 0.4182
vn -0.7955 0.3596 -0.4877
vn -0.2679 -0.0327 -0.9629
vn -0.6173 -0.7415 0.2629
vn -0.8188 0.3627 -0.4450
vn -0.4398 0.1984 -0.8759
vn -0.5585 -0.8217 0.1131
vn -0.8354 0.3738 -0.4030
vn -0.8462 0.3889 -0.3642
vn -0.4704 -0.8732 -0.1274
vn -0.8570 0.4046 -0.3190
vn -0.4364 -0.8707 -0.2267
vn -0.8672 0.4221 -0.2640
vn -0.4036 -0.8585 -0.3164
vn -0.3697 -0.8383 -0.4007
vn -0.9308 -0.1869 -0.3140
vn -0.3329 -0.8096 -0.4835
vn -0.2925 -0.7691 -0.5682
vn -0.8975 0.3768 0.2291
vn -0.2492 -0.7104 -0.6582
vn -0.8774 0.2106 0.4310
vn -0.6026 0.3153 -0.7331
vn -0.2068 -0.6223 -0.7549
vn -0.8308 -0.0624 0.5531
vn -0.7031 0.3504 -0.6187
vn -0.1759 -0.4878 -0.8550
vn 0.5770 0.3159 0.7531
vn 0.8379 -0.4916 0.2371
vn 0.4668 0.8801 -0.0863
vn 0.4705 0.7536 0.4590
vn 0.4582 0.8226 0.3366
vn 0.7238 -0.1843 0.6649
vn 0.8330 -0.3362 -0.4393
vn 0.4853 0.8442 -0.2276
vn 0.6129 0.1865 0.7678
vn 0.8524 -0.5135 0.0983
vn 0.5796 0.5828 -0.5695
vn 0.4894 0.6645 0.5646
vn 0.7585 -0.2883 0.5844
vn 0.8088 -0.2308 -0.5409
vn 0.4561 0.8880 0.0587
vn 0.6500 0.0563 0.7579
vn 0.8596 -0.5090 -0.0444
vn 0.5428 0.6927 -0.4749
vn 0.5141 0.5592 0.6503
vn 0.7899 -0.3763 0.4841
vn 0.7780 -0.1074 -0.6190
vn 0.4533 0.8683 0.2015
vn 0.8588 -0.4775 -0.1854
vn 0.5109 0.7810 -0.3591
vn 0.5437 0.4416 0.7137
vn 0.8167 -0.4451 0.3672
vn 0.7032 0.1717 -0.6899
vn 0.7420 0.0290 -0.6698
vn 0.6868 -0.0679 0.7236
vn 0.8499 -0.4194 -0.3189
usemtl Arm.002
s 1
f 1//1 4//2 3//3
f 3//3 6//4 5//5
f 5//5 8//6 7//7
f 7//7 10//8 9//9
f 9//9 12//10 11//11
f 11//11 14//12 13//13
f 13//13 16//14 15//15
f 15//15 18//16 17//17
f 18//16 19//18 17//17
f 20//19 21//20 19//18
f 22//21 23//22 21//20
f 24//23 25//24 23//22
f 26//25 27//26 25//24
f 28//27 29//28 27//26
f 30//29 31//30 29//28
f 32//31 33//32 31//30
f 34//33 35//34 33//32
f 36//35 37//36 35//34
f 38//37 39//38 37//36
f 40//39 41//40 39//38
f 42//41 43//42 41//40
f 44//43 45//44 43//42
f 46//45 47//46 45//44
f 48//47 49//48 47//46
f 50//49 51//50 49//48
f 51//50 54//51 53//52
f 53//52 56//53 55//54
f 55//54 58//55 57//56
f 57//56 60//57 59//58
f 59//58 62//59 61//60
f 50//49 88//61 89//62
f 61//60 64//63 63//64
f 63//64 2//65 1//1
f 3//3 131//66 130//67
f 67//68 100//69 68//70
f 4//2 67//68 6//4
f 24//23 75//71 76//72
f 42//41 84//73 85//74
f 58//55 94//75 60//57
f 14//12 72//76 16//14
f 34//33 80//77 81//78
f 52//79 89//62 90//80
f 6//4 68//70 8//6
f 26//25 76//72 77//81
f 44//43 85//74 86//82
f 60//57 95//83 62//59
f 18//16 72//76 73//84
f 36//35 81//78 82//85
f 54//51 90//80 91//86
f 8//6 69//87 10//8
f 28//27 77//81 78//88
f 46//45 86//82 87//89
f 62//59 96//90 64//63
f 20//19 73//84 74//91
f 38//37 82//85 83//92
f 54//51 92//93 56//53
f 10//8 70//94 12//10
f 30//29 78//88 79//95
f 48//47 87//89 88//61
f 2//65 66//96 4//2
f 64//63 65//97 2//65
f 22//21 74//91 75//71
f 40//39 83//92 84//73
f 56//53 93//98 58//55
f 12//10 71//99 14//12
f 32//31 79//95 80//77
f 109//100 107//101 117//102
f 94//75 127//103 95//83
f 82//85 113//104 114//105
f 68//70 101//106 69//87
f 95//83 128//107 96//90
f 83//92 114//105 115//108
f 69//87 102//109 70//94
f 96//90 97//110 65//97
f 84//73 115//108 116//111
f 70//94 103//112 71//99
f 85//74 116//111 117//102
f 72//76 103//112 104//113
f 85//74 118//114 86//82
f 73//84 104//113 105//115
f 86//82 119//116 87//89
f 74//91 105//115 106//117
f 87//89 120//118 88//61
f 75//71 106//117 107//101
f 88//61 121//119 89//62
f 76//72 107//101 108//120
f 89//62 122//121 90//80
f 76//72 109//100 77//81
f 90//80 123//122 91//86
f 78//88 109//100 110//123
f 91//86 124//124 92//93
f 79//95 110//123 111//125
f 65//97 98//126 66//96
f 92//93 125//127 93//98
f 80//77 111//125 112//128
f 66//96 99//129 67//68
f 93//98 126//130 94//75
f 81//78 112//128 113//104
f 144//131 152//132 136//133
f 21//20 140//134 139//135
f 41//40 148//136 39//38
f 59//58 157//137 57//56
f 13//13 136//133 135//138
f 31//30 145//139 144//131
f 51//50 153//140 49//48
f 5//5 132//141 131//66
f 23//22 141//142 140//134
f 43//42 149//143 41//40
f 61//60 158//144 59//58
f 15//15 137//145 136//133
f 33//32 146//146 145//139
f 53//52 154//147 51//50
f 7//7 133//148 132//141
f 25//24 142//149 141//142
f 45//44 150//150 43//42
f 63//64 159//151 61//60
f 17//17 138//152 137//145
f 37//36 146//146 35//34
f 55//54 155//153 53//52
f 9//9 134//154 133//148
f 27//26 143//155 142//149
f 47//46 151//156 45//44
f 1//1 130//67 129//157
f 1//1 160//158 63//64
f 19//18 139//135 138//152
f 39//38 147//159 37//36
f 57//56 156//160 55//54
f 11//11 135//138 134//154
f 29//28 144//131 143//155
f 49//48 152//132 47//46
f 1//1 2//65 4//2
f 3//3 4//2 6//4
f 5//5 6//4 8//6
f 7//7 8//6 10//8
f 9//9 10//8 12//10
f 11//11 12//10 14//12
f 13//13 14//12 16//14
f 15//15 16//14 18//16
f 18//16 20//19 19//18
f 20//19 22//21 21//20
f 22//21 24//23 23//22
f 24//23 26//25 25//24
f 26//25 28//27 27//26
f 28//27 30//29 29//28
f 30//29 32//31 31//30
f 32//31 34//33 33//32
f 34//33 36//35 35//34
f 36//35 38//37 37//36
f 38//37 40//39 39//38
f 40//39 42//41 41//40
f 42//41 44//43 43//42
f 44//43 46//45 45//44
f 46//45 48//47 47//46
f 48//47 50//49 49//48
f 50//49 52//79 51//50
f 51//50 52//79 54//51
f 53//52 54//51 56//53
f 55//54 56//53 58//55
f 57//56 58//55 60//57
f 59//58 60//57 62//59
f 50//49 48//47 88//61
f 61//60 62//59 64//63
f 63//64 64//63 2//65
f 3//3 5//5 131//66
f 67//68 99//129 100//69
f 4//2 66//96 67//68
f 24//23 22//21 75//71
f 42//41 40//39 84//73
f 58//55 93//98 94//75
f 14//12 71//99 72//76
f 34//33 32//31 80//77
f 52//79 50//49 89//62
f 6//4 67//68 68//70
f 26//25 24//23 76//72
f 44//43 42//41 85//74
f 60//57 94//75 95//83
f 18//16 16//14 72//76
f 36//35 34//33 81//78
f 54//51 52//79 90//80
f 8//6 68//70 69//87
f 28//27 26//25 77//81
f 46//45 44//43 86//82
f 62//59 95//83 96//90
f 20//19 18//16 73//84
f 38//37 36//35 82//85
f 54//51 91//86 92//93
f 10//8 69//87 70//94
f 30//29 28//27 78//88
f 48//47 46//45 87//89
f 2//65 65//97 66//96
f 64//63 96//90 65//97
f 22//21 20//19 74//91
f 40//39 38//37 83//92
f 56//53 92//93 93//98
f 12//10 70//94 71//99
f 32//31 30//29 79//95
f 99//129 98//126 126//130
f 97//110 128//107 127//103
f 127//103 126//130 98//126
f 125//127 124//124 100//69
f 123//122 122//121 102//109
f 121//119 104//113 103//112
f 119//116 118//114 106//117
f 117//102 116//111 109//100
f 115//108 114//105 110//123
f 113//104 112//128 111//125
f 111//125 110//123 114//105
f 109//100 108//120 107//101
f 107//101 106//117 118//114
f 105//115 120//118 119//116
f 103//112 102//109 122//121
f 101//106 100//69 124//124
f 98//126 97//110 127//103
f 126//130 125//127 99//129
f 122//121 121//119 103//112
f 118//114 117//102 107//101
f 114//105 113//104 111//125
f 110//123 109//100 115//108
f 106//117 105//115 119//116
f 102//109 101//106 123//122
f 99//129 125//127 100//69
f 120//118 104//113 121//119
f 115//108 109//100 116//111
f 104//113 120//118 105//115
f 124//124 123//122 101//106
f 94//75 126//130 127//103
f 82//85 81//78 113//104
f 68//70 100//69 101//106
f 95//83 127//103 128//107
f 83//92 82//85 114//105
f 69//87 101//106 102//109
f 96//90 128//107 97//110
f 84//73 83//92 115//108
f 70//94 102//109 103//112
f 85//74 84//73 116//111
f 72//76 71//99 103//112
f 85//74 117//102 118//114
f 73//84 72//76 104//113
f 86//82 118//114 119//116
f 74//91 73//84 105//115
f 87//89 119//116 120//118
f 75//71 74//91 106//117
f 88//61 120//118 121//119
f 76//72 75//71 107//101
f 89//62 121//119 122//121
f 76//72 108//120 109//100
f 90//80 122//121 123//122
f 78//88 77//81 109//100
f 91//86 123//122 124//124
f 79//95 78//88 110//123
f 65//97 97//110 98//126
f 92//93 124//124 125//127
f 80//77 79//95 111//125
f 66//96 98//126 99//129
f 93//98 125//127 126//130
f 81//78 80//77 112//128
f 160//158 129//157 132//141
f 130//67 131//66 132//141
f 132//141 133//148 134//154
f 134//154 135//138 132//141
f 136//133 137//145 138//152
f 138//152 139//135 136//133
f 140//134 141//142 144//131
f 142//149 143//155 144//131
f 144//131 145//139 146//146
f 146//146 147//159 148//136
f 148//136 149//143 150//150
f 150//150 151//156 152//132
f 152//132 153//140 154//147
f 154//147 155//153 156//160
f 156//160 157//137 158//144
f 158//144 159//151 156//160
f 129//157 130//67 132//141
f 132//141 135//138 136//133
f 136//133 139//135 140//134
f 141//142 142//149 144//131
f 144//131 146//146 148//136
f 148//136 150//150 144//131
f 152//132 154//147 160//158
f 156//160 159//151 160//158
f 160//158 132//141 136//133
f 136//133 140//134 144//131
f 144//131 150//150 152//132
f 154//147 156//160 160//158
f 160//158 136//133 152//132
f 21//20 23//22 140//134
f 41//40 149//143 148//136
f 59//58 158//144 157//137
f 13//13 15//15 136//133
f 31//30 33//32 145//139
f 51//50 154//147 153//140
f 5//5 7//7 132//141
f 23//22 25//24 141//142
f 43//42 150//150 149//143
f 61//60 159//151 158//144
f 15//15 17//17 137//145
f 33//32 35//34 146//146
f 53//52 155//153 154//147
f 7//7 9//9 133//148
f 25//24 27//26 142//149
f 45//44 151//156 150//150
f 63//64 160//158 159//151
f 17//17 19//18 138//152
f 37//36 147//159 146//146
f 55//54 156//160 155//153
f 9//9 11//11 134//154
f 27//26 29//28 143//155
f 47//46 152//132 151//156
f 1//1 3//3 130//67
f 1//1 129//157 160//158
f 19//18 21//20 139//135
f 39//38 148//136 147//159
f 57//56 157//137 156//160
f 11//11 13//13 135//138
f 29//28 31//30 144//131
f 49//48 153//140 152//132
