# Blender v2.78 (sub 0) OBJ File: 'Hagrid ALT.blend'
# www.blender.org
mtllib LArm.mtl
o Cylinder.003_Cylinder.015
v -0.804234 4.003078 3.222765
v -0.668960 4.424266 3.094164
v -0.692107 4.015145 3.230957
v -0.557542 4.441820 3.102107
v -0.584462 4.034668 3.259535
v -0.451529 4.471720 3.127650
v -0.485437 4.060896 3.307403
v -0.354995 4.512816 3.169809
v -0.398837 4.092821 3.372721
v -0.271649 4.563529 3.226964
v -0.327990 4.129216 3.452979
v -0.204694 4.621911 3.296921
v -0.275618 4.168684 3.545091
v -0.156704 4.685717 3.376989
v -0.243735 4.209706 3.645519
v -0.129522 4.752496 3.464092
v -0.233564 4.250707 3.750403
v -0.124194 4.819681 3.554883
v -0.245498 4.290110 3.855713
v -0.140924 4.884691 3.645873
v -0.279078 4.326403 3.957402
v -0.179069 4.945026 3.733564
v -0.333013 4.358189 4.051560
v -0.237163 4.998370 3.814587
v -0.405230 4.384248 4.134572
v -0.312973 5.042670 3.885829
v -0.492954 4.403577 4.203245
v -0.403588 5.076226 3.944551
v -0.592815 4.415435 4.254941
v -0.505523 5.097748 3.988497
v -0.700974 4.419365 4.287673
v -0.614862 5.106408 4.015979
v -0.813275 4.415217 4.300184
v -0.727403 5.101873 4.025939
v -0.925402 4.403150 4.291993
v -0.838821 5.084319 4.017995
v -1.033046 4.383627 4.263414
v -0.944834 5.054419 3.992453
v -1.132071 4.357399 4.215546
v -1.041368 5.013322 3.950294
v -1.218671 4.325474 4.150228
v -1.124715 4.962609 3.893137
v -1.289519 4.289078 4.069971
v -1.191669 4.904228 3.823181
v -1.341890 4.249611 3.977858
v -1.239659 4.840422 3.743113
v -1.373774 4.208589 3.877429
v -1.266841 4.773643 3.656010
v -1.383944 4.167588 3.772545
v -1.272169 4.706457 3.565218
v -1.372010 4.128184 3.667235
v -1.255439 4.641448 3.474229
v -1.338430 4.091892 3.565547
v -1.217294 4.581112 3.386538
v -1.284495 4.060106 3.471388
v -1.159200 4.527769 3.305514
v -1.212278 4.034047 3.388377
v -1.083389 4.483468 3.234273
v -1.124553 4.014718 3.319705
v -0.992775 4.449913 3.175551
v -1.024693 4.002860 3.268008
v -0.890839 4.428391 3.131605
v -0.916534 3.998930 3.235276
v -0.781500 4.419731 3.104124
v -0.672674 4.960773 2.635129
v -0.549675 4.989816 2.639967
v -0.434471 5.039364 2.656356
v -0.331489 5.107513 2.683667
v -0.244687 5.191646 2.720850
v -0.177400 5.288529 2.766476
v -0.132214 5.394439 2.818793
v -0.110867 5.505305 2.875788
v -0.114177 5.616867 2.935273
v -0.142018 5.724839 2.994961
v -0.193320 5.825069 3.052557
v -0.266112 5.913708 3.105850
v -0.357596 5.987348 3.152791
v -0.464256 6.043160 3.191576
v -0.581993 6.078998 3.220714
v -0.706284 6.093486 3.239087
v -0.832351 6.086066 3.245986
v -0.955350 6.057024 3.241148
v -1.070554 6.007476 3.224759
v -1.173536 5.939326 3.197448
v -1.260338 5.855194 3.160265
v -1.327625 5.758310 3.114639
v -1.372810 5.652400 3.062322
v -1.394158 5.541534 3.005327
v -1.390847 5.429972 2.945842
v -1.363006 5.322001 2.886154
v -1.311704 5.221770 2.828557
v -1.238912 5.133131 2.775265
v -1.147428 5.059491 2.728323
v -1.040768 5.003680 2.689539
v -0.923030 4.967842 2.660401
v -0.798740 4.953354 2.642029
v -0.852660 4.931557 1.996477
v -0.761184 4.967864 1.995072
v -0.674669 5.037248 1.991111
v -0.596440 5.137042 1.984746
v -0.529504 5.263412 1.976221
v -0.476432 5.411500 1.965866
v -0.439265 5.575617 1.954076
v -0.419431 5.749455 1.941305
v -0.417692 5.926334 1.928044
v -0.434114 6.099456 1.914804
v -0.468067 6.262168 1.902091
v -0.518246 6.408218 1.890396
v -0.582722 6.531993 1.880167
v -0.659018 6.628736 1.871798
v -0.744202 6.694730 1.865609
v -0.835000 6.727437 1.861840
v -0.927923 6.725602 1.860635
v -1.019400 6.689295 1.862040
v -1.105915 6.619911 1.866000
v -1.184143 6.520116 1.872366
v -1.251080 6.393747 1.880890
v -1.304151 6.245656 1.891246
v -1.341318 6.081540 1.903036
v -1.361152 5.907702 1.915806
v -1.362891 5.730823 1.929067
v -1.346469 5.557701 1.942308
v -1.312516 5.394989 1.955020
v -1.262337 5.248939 1.966715
v -1.197860 5.125164 1.976945
v -1.121564 5.028422 1.985314
v -1.036380 4.962429 1.991502
v -0.945582 4.929721 1.995271
v -1.079515 2.930583 3.451703
v -0.967185 2.940630 3.459840
v -0.858826 2.953071 3.489652
v -0.758602 2.967426 3.539994
v -0.670365 2.983144 3.608931
v -0.597506 2.999621 3.693815
v -0.542824 3.016224 3.791382
v -0.508421 3.032315 3.897885
v -0.495619 3.047274 4.009229
v -0.504911 3.060529 4.121136
v -0.535938 3.071568 4.229305
v -0.587509 3.079968 4.329580
v -0.657642 3.085406 4.418108
v -0.743641 3.087673 4.491485
v -0.842202 3.086683 4.546892
v -0.949537 3.082472 4.582200
v -1.061522 3.075203 4.596052
v -1.173852 3.065155 4.587915
v -1.282211 3.052714 4.558104
v -1.382435 3.038360 4.507761
v -1.470672 3.022641 4.438824
v -1.543531 3.006164 4.353940
v -1.598213 2.989562 4.256372
v -1.632616 2.973471 4.149870
v -1.645417 2.958511 4.038526
v -1.636126 2.945256 3.926619
v -1.605098 2.934217 3.818449
v -1.553527 2.925817 3.718174
v -1.483394 2.920379 3.629647
v -1.397395 2.918112 3.556270
v -1.298834 2.919103 3.500863
v -1.191499 2.923314 3.465555
vn 0.0505 -0.4855 -0.8727
vn 0.1985 -0.2969 -0.9340
vn -0.0010 -0.2510 -0.9680
vn 0.2484 -0.4941 -0.8331
vn 0.3909 -0.3298 -0.8593
vn 0.4369 -0.4842 -0.7580
vn 0.5658 -0.3460 -0.7484
vn 0.6072 -0.4538 -0.6522
vn 0.7149 -0.3439 -0.6088
vn 0.7517 -0.4029 -0.5220
vn 0.8328 -0.3240 -0.4488
vn 0.8651 -0.3334 -0.3747
vn 0.9169 -0.2882 -0.2762
vn 0.9441 -0.2484 -0.2168
vn 0.9661 -0.2393 -0.0972
vn 0.9869 -0.1521 -0.0541
vn 0.9801 -0.1802 0.0825
vn 0.9929 -0.0491 0.1082
vn 0.9588 -0.1154 0.2595
vn 0.9625 0.0559 0.2653
vn 0.9037 -0.0470 0.4256
vn 0.8970 0.1581 0.4128
vn 0.8148 0.0272 0.5790
vn 0.6705 0.3327 0.6631
vn 0.6970 0.0968 0.7105
vn 0.5174 0.4024 0.7552
vn 0.5500 0.1594 0.8198
vn 0.3445 0.4545 0.8214
vn 0.3804 0.2144 0.8996
vn 0.1574 0.4878 0.8586
vn 0.1941 0.2600 0.9459
vn -0.0350 0.5001 0.8652
vn -0.0015 0.2946 0.9556
vn -0.2278 0.4907 0.8410
vn -0.1982 0.3175 0.9273
vn -0.4126 0.4616 0.7852
vn -0.3876 0.3283 0.8614
vn -0.5825 0.4143 0.6993
vn -0.5612 0.3274 0.7601
vn -0.7304 0.3513 0.5857
vn -0.7114 0.3156 0.6279
vn -0.8504 0.2755 0.4481
vn -0.8318 0.2941 0.4707
vn -0.9374 0.1903 0.2917
vn -0.9179 0.2644 0.2958
vn -0.9875 0.0994 0.1226
vn -0.9673 0.2282 0.1107
vn -0.9986 0.0067 -0.0525
vn -0.9794 0.1867 -0.0766
vn -0.9705 -0.0841 -0.2261
vn -0.9553 0.1427 -0.2587
vn -0.9057 -0.1648 -0.3906
vn -0.8989 0.0921 -0.4284
vn -0.8094 0.0336 -0.5863
vn -0.8030 -0.2402 -0.5454
vn -0.6914 -0.0217 -0.7221
vn -0.6719 -0.3097 -0.6727
vn -0.5477 -0.0793 -0.8329
vn -0.5155 -0.3696 -0.7730
vn -0.3816 -0.1382 -0.9139
vn -0.9935 -0.1135 -0.0055
vn -0.3404 -0.4209 -0.8408
vn -0.1973 -0.1966 -0.9604
vn -0.1478 -0.4611 -0.8749
vn 0.2907 -0.8042 -0.5184
vn 0.1672 -0.8015 -0.5741
vn 0.5164 -0.7201 -0.4633
vn 0.5009 -0.3900 -0.7726
vn 0.6680 -0.5880 -0.4560
vn 0.3395 -0.8268 -0.4485
vn 0.7972 0.2514 0.5488
vn 0.8671 0.4545 0.2038
vn 0.7568 0.5694 0.3209
vn -0.7752 0.4793 0.4115
vn -0.4726 -0.8126 -0.3410
vn 0.9546 -0.1379 -0.2642
vn 0.9867 0.0256 -0.1606
vn -0.1086 0.7784 0.6182
vn -0.9559 -0.2758 -0.1006
vn 0.6171 0.6628 0.4241
vn -0.8829 0.3487 0.3143
vn -0.2693 -0.8935 -0.3593
vn 0.9831 0.1771 -0.0462
vn -0.2977 0.7421 0.6005
vn -0.8786 -0.4375 -0.1911
vn 0.7922 -0.4428 -0.4199
vn 0.4540 0.7317 0.5085
vn -0.9567 0.2031 0.2083
vn -0.0631 -0.9178 -0.3920
vn 0.9434 0.3221 0.0791
vn -0.4764 0.6790 0.5585
vn -0.7740 -0.5735 -0.2683
vn 0.8883 -0.2917 -0.3547
vn 0.2743 0.7743 0.5703
vn -0.9939 0.0475 0.0995
vn 0.1430 -0.8952 -0.4220
vn -0.6377 0.5907 0.4943
vn -0.6339 -0.7047 -0.3186
vn 0.0844 0.7894 0.6081
vn 0.6732 0.2596 -0.6923
vn 0.6697 0.1477 -0.7278
vn -0.7130 0.2928 -0.6370
vn -0.3451 -0.6956 -0.6301
vn -0.4170 0.7253 -0.5477
vn 0.5302 -0.2944 -0.7951
vn -0.1208 -0.7745 -0.6209
vn -0.5824 0.5741 -0.5755
vn 0.5508 -0.2173 -0.8058
vn 0.1302 -0.7551 -0.6425
vn -0.6722 0.4239 -0.6070
vn 0.5708 -0.1507 -0.8071
vn 0.5994 -0.0827 -0.7961
vn -0.7259 0.1821 -0.6632
vn 0.6272 -0.0186 -0.7786
vn -0.7236 0.0872 -0.6847
vn 0.6516 0.0572 -0.7564
vn -0.7131 0.0031 -0.7010
vn -0.6984 -0.0755 -0.7117
vn -0.6809 -0.1536 -0.7161
vn 0.6467 0.3983 -0.6504
vn -0.6618 -0.2462 -0.7081
vn 0.5642 0.5621 -0.6047
vn -0.6444 -0.3383 -0.6857
vn 0.3949 0.7260 -0.5629
vn 0.3291 -0.6465 -0.6882
vn -0.5987 -0.4519 -0.6612
vn 0.1343 0.8329 -0.5368
vn 0.4444 -0.5103 -0.7363
vn -0.5173 -0.5658 -0.6420
vn -0.1655 0.8302 -0.5323
vn 0.1965 -0.5615 0.8037
vn -0.6242 -0.7041 -0.3387
vn -0.1116 -0.7823 -0.6128
vn 0.6570 -0.6765 0.3327
vn -0.3922 -0.5456 0.7406
vn -0.3944 -0.7480 -0.5338
vn -0.5194 -0.7269 -0.4493
vn 0.6601 -0.7504 -0.0339
vn 0.6215 -0.7692 -0.1486
vn -0.7710 -0.6298 0.0943
vn 0.3989 -0.8021 -0.4443
vn 0.6100 -0.6501 0.4530
vn -0.5193 -0.5550 0.6498
vn -0.2561 -0.7667 -0.5887
vn 0.6795 -0.7286 0.0860
vn 0.0513 -0.5492 0.8341
vn -0.7032 -0.6802 -0.2068
vn -0.7538 -0.6544 -0.0587
vn 0.4905 -0.7954 -0.3560
vn 0.5391 -0.6242 0.5654
vn -0.6252 -0.5690 0.5341
vn 0.6793 -0.7030 0.2103
vn -0.0999 -0.5424 0.8341
vn 0.5648 -0.7843 -0.2566
vn 0.4448 -0.6000 0.6649
vn -0.7048 -0.5867 0.3988
vn 0.0315 -0.7941 -0.6070
vn -0.2501 -0.5412 0.8028
vn 0.3294 -0.5788 0.7460
vn -0.7542 -0.6073 0.2498
usemtl Arm.001
s 1
f 2//1 3//2 1//3
f 4//4 5//5 3//2
f 6//6 7//7 5//5
f 8//8 9//9 7//7
f 10//10 11//11 9//9
f 12//12 13//13 11//11
f 14//14 15//15 13//13
f 16//16 17//17 15//15
f 18//18 19//19 17//17
f 20//20 21//21 19//19
f 22//22 23//23 21//21
f 23//23 26//24 25//25
f 25//25 28//26 27//27
f 27//27 30//28 29//29
f 29//29 32//30 31//31
f 31//31 34//32 33//33
f 33//33 36//34 35//35
f 35//35 38//36 37//37
f 37//37 40//38 39//39
f 39//39 42//40 41//41
f 41//41 44//42 43//43
f 43//43 46//44 45//45
f 45//45 48//46 47//47
f 47//47 50//48 49//49
f 49//49 52//50 51//51
f 51//51 54//52 53//53
f 54//52 55//54 53//53
f 56//55 57//56 55//54
f 58//57 59//58 57//56
f 60//59 61//60 59//58
f 48//46 89//61 50//48
f 62//62 63//63 61//60
f 64//64 1//3 63//63
f 3//2 131//65 130//66
f 67//67 100//68 68//69
f 6//6 66//70 67//67
f 24//71 75//72 76//73
f 40//38 85//74 42//40
f 58//57 94//75 60//59
f 16//16 71//76 72//77
f 32//30 81//78 34//32
f 50//48 90//79 52//50
f 8//8 67//67 68//69
f 26//24 76//73 77//80
f 42//40 86//81 44//42
f 60//59 95//82 62//62
f 18//18 72//77 73//83
f 34//32 82//84 36//34
f 52//50 91//85 54//52
f 10//10 68//69 69//86
f 28//26 77//80 78//87
f 44//42 87//88 46//44
f 64//64 95//82 96//89
f 20//20 73//83 74//90
f 36//34 83//91 38//36
f 54//52 92//92 56//55
f 12//12 69//86 70//93
f 30//28 78//87 79//94
f 46//44 88//95 48//46
f 4//4 65//96 66//70
f 2//1 96//89 65//96
f 22//22 74//90 75//72
f 38//36 84//97 40//38
f 56//55 93//98 58//57
f 14//14 70//93 71//76
f 32//30 79//94 80//99
f 108//100 107//101 117//102
f 94//75 127//103 95//82
f 81//78 114//104 82//84
f 68//69 101//105 69//86
f 95//82 128//106 96//89
f 82//84 115//107 83//91
f 69//86 102//108 70//93
f 96//89 97//109 65//96
f 83//91 116//110 84//97
f 70//93 103//111 71//76
f 84//97 117//102 85//74
f 71//76 104//112 72//77
f 85//74 118//113 86//81
f 73//83 104//112 105//114
f 86//81 119//115 87//88
f 74//90 105//114 106//116
f 87//88 120//117 88//95
f 75//72 106//116 107//101
f 88//95 121//118 89//61
f 76//73 107//101 108//100
f 89//61 122//119 90//79
f 77//80 108//100 109//120
f 90//79 123//121 91//85
f 78//87 109//120 110//122
f 92//92 123//121 124//123
f 79//94 110//122 111//124
f 65//96 98//125 66//70
f 93//98 124//123 125//126
f 80//99 111//124 112//127
f 66//70 99//128 67//67
f 94//75 125//126 126//129
f 81//78 112//127 113//130
f 144//131 156//132 160//133
f 23//23 139//134 21//21
f 41//41 148//135 39//39
f 57//56 158//136 157//137
f 13//13 136//138 135//139
f 33//33 144//131 31//31
f 51//51 153//140 49//49
f 5//5 132//141 131//65
f 25//25 140//142 23//23
f 43//43 149//143 41//41
f 59//58 159//144 158//136
f 15//15 137//145 136//138
f 35//35 145//146 33//33
f 51//51 155//147 154//148
f 7//7 133//149 132//141
f 27//27 141//150 25//25
f 45//45 150//151 43//43
f 61//60 160//133 159//144
f 17//17 138//152 137//145
f 37//37 146//153 35//35
f 53//53 156//132 155//147
f 9//9 134//154 133//149
f 29//29 142//155 27//27
f 47//47 151//156 45//45
f 1//3 130//66 129//157
f 63//63 129//157 160//133
f 21//21 138//152 19//19
f 39//39 147//158 37//37
f 55//54 157//137 156//132
f 11//11 135//139 134//154
f 31//31 143//159 29//29
f 49//49 152//160 47//47
f 2//1 4//4 3//2
f 4//4 6//6 5//5
f 6//6 8//8 7//7
f 8//8 10//10 9//9
f 10//10 12//12 11//11
f 12//12 14//14 13//13
f 14//14 16//16 15//15
f 16//16 18//18 17//17
f 18//18 20//20 19//19
f 20//20 22//22 21//21
f 22//22 24//71 23//23
f 23//23 24//71 26//24
f 25//25 26//24 28//26
f 27//27 28//26 30//28
f 29//29 30//28 32//30
f 31//31 32//30 34//32
f 33//33 34//32 36//34
f 35//35 36//34 38//36
f 37//37 38//36 40//38
f 39//39 40//38 42//40
f 41//41 42//40 44//42
f 43//43 44//42 46//44
f 45//45 46//44 48//46
f 47//47 48//46 50//48
f 49//49 50//48 52//50
f 51//51 52//50 54//52
f 54//52 56//55 55//54
f 56//55 58//57 57//56
f 58//57 60//59 59//58
f 60//59 62//62 61//60
f 48//46 88//95 89//61
f 62//62 64//64 63//63
f 64//64 2//1 1//3
f 3//2 5//5 131//65
f 67//67 99//128 100//68
f 6//6 4//4 66//70
f 24//71 22//22 75//72
f 40//38 84//97 85//74
f 58//57 93//98 94//75
f 16//16 14//14 71//76
f 32//30 80//99 81//78
f 50//48 89//61 90//79
f 8//8 6//6 67//67
f 26//24 24//71 76//73
f 42//40 85//74 86//81
f 60//59 94//75 95//82
f 18//18 16//16 72//77
f 34//32 81//78 82//84
f 52//50 90//79 91//85
f 10//10 8//8 68//69
f 28//26 26//24 77//80
f 44//42 86//81 87//88
f 64//64 62//62 95//82
f 20//20 18//18 73//83
f 36//34 82//84 83//91
f 54//52 91//85 92//92
f 12//12 10//10 69//86
f 30//28 28//26 78//87
f 46//44 87//88 88//95
f 4//4 2//1 65//96
f 2//1 64//64 96//89
f 22//22 20//20 74//90
f 38//36 83//91 84//97
f 56//55 92//92 93//98
f 14//14 12//12 70//93
f 32//30 30//28 79//94
f 99//128 98//125 126//129
f 97//109 128//106 127//103
f 127//103 126//129 98//125
f 125//126 124//123 100//68
f 123//121 122//119 102//108
f 121//118 104//112 103//111
f 119//115 118//113 106//116
f 117//102 116//110 108//100
f 115//107 114//104 110//122
f 113//130 112//127 111//124
f 111//124 110//122 114//104
f 109//120 108//100 116//110
f 107//101 106//116 118//113
f 105//114 120//117 119//115
f 103//111 102//108 122//119
f 101//105 100//68 124//123
f 98//125 97//109 127//103
f 126//129 125//126 99//128
f 122//119 121//118 103//111
f 118//113 117//102 107//101
f 114//104 113//130 111//124
f 110//122 109//120 115//107
f 106//116 105//114 119//115
f 102//108 101//105 123//121
f 99//128 125//126 100//68
f 120//117 104//112 121//118
f 115//107 109//120 116//110
f 104//112 120//117 105//114
f 124//123 123//121 101//105
f 94//75 126//129 127//103
f 81//78 113//130 114//104
f 68//69 100//68 101//105
f 95//82 127//103 128//106
f 82//84 114//104 115//107
f 69//86 101//105 102//108
f 96//89 128//106 97//109
f 83//91 115//107 116//110
f 70//93 102//108 103//111
f 84//97 116//110 117//102
f 71//76 103//111 104//112
f 85//74 117//102 118//113
f 73//83 72//77 104//112
f 86//81 118//113 119//115
f 74//90 73//83 105//114
f 87//88 119//115 120//117
f 75//72 74//90 106//116
f 88//95 120//117 121//118
f 76//73 75//72 107//101
f 89//61 121//118 122//119
f 77//80 76//73 108//100
f 90//79 122//119 123//121
f 78//87 77//80 109//120
f 92//92 91//85 123//121
f 79//94 78//87 110//122
f 65//96 97//109 98//125
f 93//98 92//92 124//123
f 80//99 79//94 111//124
f 66//70 98//125 99//128
f 94//75 93//98 125//126
f 81//78 80//99 112//127
f 160//133 129//157 132//141
f 130//66 131//65 132//141
f 132//141 133//149 134//154
f 134//154 135//139 136//138
f 136//138 137//145 138//152
f 138//152 139//134 136//138
f 140//142 141//150 142//155
f 142//155 143//159 140//142
f 144//131 145//146 148//135
f 146//153 147//158 148//135
f 148//135 149//143 150//151
f 150//151 151//156 152//160
f 152//160 153//140 154//148
f 154//148 155//147 152//160
f 156//132 157//137 160//133
f 158//136 159//144 160//133
f 129//157 130//66 132//141
f 132//141 134//154 136//138
f 136//138 139//134 140//142
f 140//142 143//159 144//131
f 145//146 146//153 148//135
f 148//135 150//151 144//131
f 152//160 155//147 156//132
f 157//137 158//136 160//133
f 160//133 132//141 136//138
f 136//138 140//142 160//133
f 144//131 150//151 152//160
f 152//160 156//132 144//131
f 160//133 140//142 144//131
f 23//23 140//142 139//134
f 41//41 149//143 148//135
f 57//56 59//58 158//136
f 13//13 15//15 136//138
f 33//33 145//146 144//131
f 51//51 154//148 153//140
f 5//5 7//7 132//141
f 25//25 141//150 140//142
f 43//43 150//151 149//143
f 59//58 61//60 159//144
f 15//15 17//17 137//145
f 35//35 146//153 145//146
f 51//51 53//53 155//147
f 7//7 9//9 133//149
f 27//27 142//155 141//150
f 45//45 151//156 150//151
f 61//60 63//63 160//133
f 17//17 19//19 138//152
f 37//37 147//158 146//153
f 53//53 55//54 156//132
f 9//9 11//11 134//154
f 29//29 143//159 142//155
f 47//47 152//160 151//156
f 1//3 3//2 130//66
f 63//63 1//3 129//157
f 21//21 139//134 138//152
f 39//39 148//135 147//158
f 55//54 57//56 157//137
f 11//11 13//13 135//139
f 31//31 144//131 143//159
f 49//49 153//140 152//160
