# Blender v2.78 (sub 0) OBJ File: 'Batman.blend'
# www.blender.org
mtllib Crotch.mtl
o Cylinder.005_Cylinder.008
v 0.299938 -1.851352 -0.115949
v 0.299938 -1.851352 0.115949
v 0.305814 -2.040117 -0.115949
v 0.305814 -2.040117 0.115949
v 0.299938 -2.228881 -0.115949
v 0.299938 -2.228881 0.115949
v 0.282536 -2.410392 -0.115949
v 0.282536 -2.410392 0.115949
v 0.254275 -2.577673 -0.115949
v 0.254275 -2.577673 0.115949
v 0.216243 -2.724296 -0.115949
v 0.216243 -2.724296 0.115949
v 0.169901 -2.844627 -0.115949
v 0.169901 -2.844627 0.115949
v 0.117030 -2.934041 -0.115949
v 0.117030 -2.934041 0.115949
v 0.059661 -2.989101 -0.115949
v 0.059661 -2.989101 0.115949
v -0.000000 -3.007693 -0.115949
v -0.000000 -3.007693 0.115949
v -0.059662 -2.989101 -0.115949
v -0.059662 -2.989101 0.115949
v -0.117030 -2.934040 -0.115949
v -0.117030 -2.934040 0.115949
v -0.169902 -2.844626 -0.115949
v -0.169902 -2.844626 0.115949
v -0.216244 -2.724296 -0.115949
v -0.216244 -2.724296 0.115949
v -0.254276 -2.577673 -0.115949
v -0.254276 -2.577673 0.115949
v -0.282536 -2.410391 -0.115949
v -0.282536 -2.410391 0.115949
v -0.299938 -2.228881 -0.115949
v -0.299938 -2.228881 0.115949
v -0.305814 -2.040116 -0.115949
v -0.305814 -2.040116 0.115949
v -0.299938 -1.851351 -0.115949
v -0.299938 -1.851351 0.115949
vn 0.6960 0.7180 0.0000
vn 1.0000 0.0000 0.0000
vn 0.9980 -0.0633 0.0000
vn 0.9914 -0.1311 0.0000
vn 0.9779 -0.2090 0.0000
vn 0.9521 -0.3057 0.0000
vn 0.9001 -0.4357 0.0000
vn 0.7838 -0.6209 0.0000
vn 0.5085 -0.8610 0.0000
vn 0.0000 -1.0000 0.0000
vn -0.5085 -0.8610 0.0000
vn -0.7838 -0.6209 0.0000
vn -0.9001 -0.4357 0.0000
vn -0.9521 -0.3057 0.0000
vn -0.9779 -0.2090 0.0000
vn -0.9914 -0.1311 0.0000
vn -0.9980 -0.0633 0.0000
vn -1.0000 0.0000 0.0000
vn -0.6960 0.7180 0.0000
usemtl Crotch
s 1
f 2//1 3//2 1//1
f 4//2 5//3 3//2
f 6//3 7//4 5//3
f 8//4 9//5 7//4
f 10//5 11//6 9//5
f 12//6 13//7 11//6
f 14//7 15//8 13//7
f 16//8 17//9 15//8
f 18//9 19//10 17//9
f 20//10 21//11 19//10
f 22//11 23//12 21//11
f 24//12 25//13 23//12
f 26//13 27//14 25//13
f 28//14 29//15 27//14
f 30//15 31//16 29//15
f 32//16 33//17 31//16
f 34//17 35//18 33//17
f 36//18 37//19 35//18
f 37//19 2//1 1//1
f 2//1 4//2 3//2
f 4//2 6//3 5//3
f 6//3 8//4 7//4
f 8//4 10//5 9//5
f 10//5 12//6 11//6
f 12//6 14//7 13//7
f 14//7 16//8 15//8
f 16//8 18//9 17//9
f 18//9 20//10 19//10
f 20//10 22//11 21//11
f 22//11 24//12 23//12
f 24//12 26//13 25//13
f 26//13 28//14 27//14
f 28//14 30//15 29//15
f 30//15 32//16 31//16
f 32//16 34//17 33//17
f 34//17 36//18 35//18
f 36//18 38//19 37//19
f 37//19 38//19 2//1
